<?xml version="1.0" standalone="no"?>
<!DOCTYPE svg PUBLIC "-//W3C//DTD SVG 20010904//EN"
 "http://www.w3.org/TR/2001/REC-SVG-20010904/DTD/svg10.dtd">
<svg version="1.0" xmlns="http://www.w3.org/2000/svg"
 width="1077.000000pt" height="512.000000pt" viewBox="0 0 1077.000000 512.000000"
 preserveAspectRatio="xMidYMid meet">
<metadata>
Created by potrace 1.10, written by Peter Selinger 2001-2011
</metadata>
<g transform="translate(0.000000,512.000000) scale(0.100000,-0.100000)"
fill="#ecc087" stroke="none">
<path d="M4460 4073 c0 -576 -3 -1049 -6 -1052 -3 -3 -1005 -6 -2227 -6 -2108
0 -2222 -1 -2225 -17 -3 -17 109 -18 2247 -18 l2251 0 0 1070 c0 1052 0 1070
-19 1070 -19 0 -20 -18 -21 -1047z"/>
<path d="M655 4485 c-198 -80 -246 -339 -90 -489 32 -30 45 -50 41 -61 -10
-27 -36 -29 -61 -5 -13 12 -29 20 -36 18 -8 -3 3 -22 31 -52 39 -42 45 -45 53
-29 14 25 59 73 70 73 5 0 6 -13 2 -29 -20 -90 69 -191 167 -191 21 0 40 10
64 34 46 46 48 101 5 148 -27 30 -34 33 -115 39 -149 12 -244 79 -277 197 -37
134 39 282 170 327 62 21 309 22 292 1 -8 -10 -47 -15 -139 -18 -139 -5 -169
-14 -230 -71 -25 -24 -72 -116 -72 -142 0 -2 87 -5 193 -7 l193 -3 66 -33 c73
-36 123 -86 160 -161 18 -37 23 -63 23 -136 0 -79 -4 -97 -28 -147 -98 -200
-361 -251 -526 -102 -53 48 -96 124 -105 187 -15 95 -18 107 -27 102 -14 -9
-11 -85 7 -145 50 -169 224 -284 391 -258 128 20 230 94 286 207 29 60 32 75
32 156 0 76 -5 99 -27 147 -37 79 -98 142 -176 180 -65 32 -68 33 -239 36
-153 4 -173 6 -173 21 0 34 50 89 102 115 46 21 67 25 158 26 112 1 150 13
150 50 0 32 -32 40 -157 40 -102 0 -126 -4 -178 -25z m172 -581 c66 -8 93 -64
57 -119 -43 -65 -160 -23 -184 66 -18 68 -9 71 127 53z"/>
<path d="M2030 4257 c-120 -27 -195 -100 -222 -216 l-13 -56 -3 120 c-3 142
-10 155 -82 155 -25 0 -55 -7 -66 -15 -19 -14 -19 -15 0 -47 61 -106 71 -133
74 -200 7 -109 2 -106 -155 122 -95 136 -136 163 -190 125 -22 -15 -22 -21
-23 -254 0 -234 0 -238 23 -259 27 -25 99 -24 125 2 16 16 16 19 -2 49 -58 95
-76 142 -76 204 0 34 4 64 9 67 5 3 59 -67 121 -155 62 -88 123 -167 135 -175
25 -16 71 -12 91 8 9 9 14 48 15 121 1 60 4 105 8 102 3 -4 6 -10 7 -13 7 -72
76 -166 148 -205 60 -32 211 -32 276 0 78 39 114 80 145 164 l23 64 1 -93 c2
-102 10 -136 40 -151 30 -16 77 -3 90 25 6 14 11 51 11 83 0 41 4 60 14 64 20
8 56 -35 91 -106 27 -55 34 -63 68 -70 41 -10 87 10 87 38 0 19 24 19 39 1 6
-7 36 -21 67 -31 72 -23 187 -14 240 17 32 19 37 19 45 6 13 -24 65 -41 103
-34 51 10 62 28 50 86 -15 72 -7 80 81 80 82 0 108 -15 120 -72 16 -72 89
-114 143 -82 26 15 32 15 53 2 33 -20 269 -19 293 1 17 14 23 86 7 95 -12 8
-23 -41 -16 -65 6 -18 0 -19 -139 -19 l-146 0 0 245 0 245 40 0 40 0 0 -235 0
-235 23 0 c41 0 117 27 153 55 19 15 33 29 30 32 -3 3 -39 -9 -81 -28 -64 -28
-78 -31 -85 -19 -6 8 -10 107 -10 219 0 196 -1 204 -22 222 -25 22 -67 25 -92
6 -18 -14 -18 -6 -24 -337 -3 -114 -13 -101 -102 125 -75 189 -99 225 -148
225 -44 -1 -66 -29 -116 -148 -57 -136 -102 -229 -116 -237 -5 -3 -12 5 -15
18 -11 41 -75 94 -166 136 -104 49 -139 75 -139 105 0 31 30 56 67 56 37 0 58
-22 72 -78 16 -56 49 -79 92 -62 36 15 63 63 55 96 -10 37 -63 92 -104 105
-43 15 -127 14 -185 -2 -44 -12 -107 -67 -107 -93 0 -27 -16 -18 -44 24 -39
59 -70 71 -200 76 -147 6 -149 4 -156 -139 l-5 -102 -17 55 c-46 149 -184 223
-348 187z m-312 -27 l47 0 -2 -158 c-1 -86 -2 -196 -3 -244 l0 -88 -33 0 c-23
0 -36 7 -46 23 -28 45 -283 408 -285 405 -1 -2 1 -68 4 -148 6 -158 15 -186
73 -247 l31 -33 -62 0 -62 0 0 245 0 245 33 0 c32 0 39 -9 181 -211 82 -115
149 -209 150 -207 1 2 0 68 -4 148 -5 136 -7 149 -33 193 -16 26 -37 53 -48
60 -23 14 -26 32 -3 23 9 -3 37 -6 62 -6z m470 -5 c62 -19 115 -62 145 -119
30 -59 30 -174 -2 -235 -47 -89 -117 -130 -225 -131 -97 0 -143 16 -198 71
-52 53 -68 94 -68 184 0 180 160 286 348 230z m883 5 c44 -12 87 -56 95 -97 5
-25 2 -34 -17 -47 -13 -9 -34 -16 -46 -16 -20 0 -23 5 -23 35 0 96 -86 145
-167 95 -42 -25 -51 -60 -26 -102 15 -25 45 -45 134 -90 162 -79 197 -127 150
-204 -59 -97 -280 -88 -348 15 -28 41 -28 46 -3 71 33 33 58 26 70 -20 15 -55
56 -99 103 -110 66 -14 137 19 137 65 0 41 -40 75 -156 130 -133 64 -158 91
-151 163 10 96 123 147 248 112z m-396 -14 c47 -20 75 -69 75 -130 0 -77 -33
-118 -120 -149 -12 -4 -12 -6 2 -6 39 -2 122 -101 143 -168 6 -21 3 -23 -38
-23 -43 0 -44 1 -56 42 -26 85 -73 135 -143 152 l-28 6 0 -100 0 -100 -40 0
-40 0 0 245 0 245 105 0 c69 0 118 -5 140 -14z m919 -225 c53 -132 96 -242 96
-245 0 -3 -19 -6 -43 -6 l-43 0 -29 80 -29 81 -121 -3 -120 -3 1 -46 c1 -25 9
-60 18 -78 l17 -31 -65 0 -65 0 95 218 c53 119 100 229 106 245 8 23 16 27 48
27 l38 0 96 -239z m-770 25 c18 -24 59 -51 129 -86 141 -70 171 -108 112 -140
-47 -25 -115 15 -145 86 -32 73 -84 80 -132 19 -25 -32 -32 -31 -57 4 l-21 29
35 52 c19 29 35 56 35 61 0 19 18 8 44 -25z"/>
<path d="M1969 4187 c-116 -77 -81 -313 60 -395 55 -32 137 -36 188 -9 129 69
86 329 -68 407 -54 28 -136 27 -180 -3z m177 -32 c70 -41 114 -127 114 -221 0
-181 -210 -194 -301 -18 -33 65 -35 178 -3 221 44 59 109 65 190 18z"/>
<path d="M2510 4083 l0 -133 49 0 c85 0 128 59 119 161 -7 72 -34 96 -109 101
l-59 3 0 -132z m96 99 c45 -31 57 -106 25 -158 -21 -35 -69 -53 -82 -32 -14
22 -11 186 4 191 18 8 41 8 53 -1z"/>
<path d="M3424 4185 c-4 -11 -31 -75 -60 -142 l-52 -123 113 0 114 0 -25 68
c-15 37 -39 101 -54 142 -23 60 -30 71 -36 55z m35 -141 c18 -48 27 -92 19
-95 -2 0 -23 -2 -48 -5 -72 -7 -77 2 -44 85 16 39 34 71 40 71 6 0 21 -25 33
-56z"/>
<path d="M537 4170 c19 -77 56 -128 119 -161 37 -20 46 -22 53 -10 14 23 33
124 29 159 l-3 33 -102 2 -102 2 6 -25z m130 -16 c3 -8 -1 -22 -9 -30 -12 -12
-17 -12 -33 0 -16 12 -17 16 -6 30 17 20 40 21 48 0z m34 -74 c-8 -43 -34 -50
-67 -19 -30 28 -30 37 -1 32 14 -3 29 3 42 16 24 28 36 15 26 -29z"/>
<path d="M770 4131 c-1 -36 -7 -84 -15 -106 -8 -21 -13 -40 -12 -41 1 -1 31
-4 65 -6 64 -4 64 -4 107 38 45 43 90 118 80 134 -9 15 -98 38 -162 42 l-63 4
0 -65z m154 19 c37 -14 33 -43 -15 -95 -36 -39 -47 -45 -81 -45 l-39 0 6 58
c11 91 11 92 60 92 24 0 55 -4 69 -10z"/>
<path d="M1014 4088 c-9 -17 -38 -55 -65 -83 l-49 -52 21 -19 c26 -23 49 -74
49 -108 0 -20 11 -30 62 -55 l62 -31 13 25 c28 52 35 131 19 196 -14 54 -61
139 -86 154 -5 3 -17 -9 -26 -27z m52 -61 c11 -17 26 -54 33 -80 17 -69 -2
-157 -33 -157 -24 0 -65 40 -75 73 -5 18 -15 46 -22 64 -12 29 -11 34 26 82
22 28 42 51 45 51 3 0 14 -15 26 -33z"/>
<path d="M615 3833 c-9 -40 -14 -40 -45 -8 -13 14 -27 25 -31 25 -8 0 8 -51
31 -102 l13 -27 28 23 c16 13 34 26 40 28 8 3 9 9 1 23 -5 11 -15 31 -20 45
l-10 25 -7 -32z"/>
<path d="M926 3734 c-15 -19 -39 -37 -51 -40 -30 -8 -36 -24 -24 -68 9 -33 13
-36 37 -30 57 14 121 47 152 80 19 18 32 35 29 36 -15 10 -109 58 -112 57 -1
0 -15 -16 -31 -35z m78 -31 c8 -19 -1 -26 -63 -55 -36 -16 -45 -18 -52 -7 -6
10 3 24 29 46 41 35 76 42 86 16z"/>
<path d="M640 3724 l-31 -27 27 -28 c29 -31 99 -63 158 -74 36 -7 38 -7 27 13
-6 11 -11 34 -11 51 0 25 -4 31 -20 31 -26 0 -72 23 -89 44 -18 21 -24 20 -61
-10z m90 -44 c22 -11 40 -27 40 -35 0 -13 -5 -13 -37 0 -21 9 -47 25 -58 35
-18 18 -18 20 -2 20 10 0 36 -9 57 -20z"/>
<path d="M1561 3670 c-29 -21 -32 -92 -6 -120 21 -24 67 -26 85 -5 15 19 19
106 5 121 -18 19 -62 22 -84 4z m74 -19 c3 -5 -7 -11 -22 -13 -35 -4 -37 -22
-3 -27 l25 -4 -23 -6 c-28 -7 -29 -26 -2 -26 32 -1 23 -20 -10 -20 -30 -1 -30
0 -30 52 0 52 1 53 29 53 17 0 32 -4 36 -9z"/>
<path d="M2957 3669 c-30 -22 -36 -64 -16 -102 16 -30 24 -34 63 -29 28 3 37
10 45 35 16 43 14 72 -6 89 -32 28 -58 30 -86 7z m64 -19 c24 -13 25 -36 2
-49 -15 -8 -16 -12 -5 -22 14 -15 16 -29 3 -29 -5 0 -13 9 -16 20 -8 26 -25
26 -25 -1 0 -11 -4 -17 -10 -14 -11 7 -14 88 -3 98 9 10 31 9 54 -3z"/>
<path d="M2980 3626 c0 -10 9 -16 21 -16 24 0 21 23 -4 28 -10 2 -17 -3 -17
-12z"/>
<path d="M1365 3660 c-13 -15 -16 -30 -12 -61 7 -54 18 -63 75 -65 61 -2 82
16 82 71 0 51 -27 83 -57 66 -12 -6 -25 -6 -34 0 -21 13 -34 11 -54 -11z m51
-37 l16 -38 15 38 c21 52 33 46 33 -19 0 -34 -4 -53 -10 -49 -5 3 -10 16 -11
28 l0 22 -11 -22 c-15 -30 -24 -29 -36 5 l-10 27 -1 -32 c-2 -57 -21 -36 -21
22 0 64 13 70 36 18z"/>
<path d="M1707 3662 c-21 -23 -22 -95 -2 -112 23 -19 73 -18 91 1 9 10 18 35
21 57 4 33 2 42 -18 56 -31 21 -72 20 -92 -2z m77 -18 c20 -20 20 -31 -1 -43
-14 -8 -15 -11 -4 -25 8 -9 11 -20 7 -24 -4 -4 -16 4 -26 18 l-20 25 0 -22 c0
-13 -4 -23 -10 -23 -5 0 -10 25 -10 55 0 52 2 55 24 55 14 0 32 -7 40 -16z"/>
<path d="M1740 3626 c0 -10 9 -16 21 -16 24 0 21 23 -4 28 -10 2 -17 -3 -17
-12z"/>
<path d="M1994 3655 c-20 -30 -22 -88 -5 -109 19 -23 84 -21 105 3 14 16 15
24 6 40 -6 12 -8 26 -5 32 4 5 -1 21 -9 34 -22 34 -70 34 -92 0z m71 -11 c20
-20 11 -32 -10 -14 -31 26 -28 -1 5 -35 18 -19 30 -38 27 -42 -4 -4 -13 -1
-19 5 -8 8 -15 8 -23 2 -7 -6 -20 -8 -29 -4 -17 7 -22 39 -6 49 5 3 6 13 3 21
-3 9 0 20 8 25 20 12 25 11 44 -7z"/>
<path d="M2020 3585 c0 -9 5 -15 11 -13 6 2 11 8 11 13 0 5 -5 11 -11 13 -6 2
-11 -4 -11 -13z"/>
<path d="M2291 3654 c-12 -15 -21 -37 -21 -49 0 -38 37 -75 75 -75 65 0 93 80
47 133 -24 27 -76 22 -101 -9z m80 -5 c11 -5 17 -14 14 -19 -4 -6 -14 -5 -26
3 -17 10 -22 9 -34 -7 -17 -23 -2 -59 22 -54 23 4 27 25 6 31 -12 3 -8 5 10 6
21 1 27 -4 27 -19 0 -28 -40 -46 -69 -31 -30 17 -32 66 -3 89 19 15 28 15 53
1z"/>
<path d="M2481 3653 c-24 -29 -34 -62 -29 -90 3 -15 14 -18 60 -20 70 -2 85
11 69 59 -13 37 -48 78 -67 78 -7 0 -22 -12 -33 -27z m65 -44 c14 -28 23 -53
20 -56 -8 -8 -26 7 -26 23 0 22 -38 16 -51 -8 -21 -40 -20 -3 1 45 12 26 23
47 25 47 3 0 16 -23 31 -51z"/>
<path d="M2637 3662 c-21 -23 -22 -81 -1 -110 19 -27 64 -29 88 -3 20 22 18
90 -4 116 -17 21 -63 19 -83 -3z m69 -16 c10 -8 16 -18 12 -22 -4 -4 -15 -1
-23 6 -11 9 -19 10 -26 3 -7 -7 -1 -14 20 -21 33 -12 40 -32 16 -52 -18 -15
-55 -4 -55 18 0 12 3 13 12 4 7 -7 18 -12 25 -12 22 0 14 20 -11 30 -34 13
-42 31 -21 47 23 16 27 16 51 -1z"/>
<path d="M2791 3666 c-9 -11 -8 -26 5 -65 9 -28 22 -55 29 -61 16 -14 39 13
58 68 13 37 13 44 0 57 -18 19 -77 19 -92 1z m89 -16 c0 -5 -7 -10 -15 -10
-11 0 -15 -12 -15 -45 0 -25 -4 -45 -10 -45 -5 0 -10 20 -10 45 0 33 -4 45
-15 45 -8 0 -15 5 -15 10 0 6 18 10 40 10 22 0 40 -4 40 -10z"/>
<path d="M3122 3657 c-46 -49 -12 -127 54 -127 37 0 77 38 77 75 0 65 -87 99
-131 52z m88 -17 c11 -11 20 -27 20 -35 0 -8 -9 -24 -20 -35 -11 -11 -27 -20
-35 -20 -8 0 -24 9 -35 20 -11 11 -20 27 -20 35 0 8 9 24 20 35 11 11 27 20
35 20 8 0 24 -9 35 -20z"/>
<path d="M3150 3626 c-27 -33 18 -72 48 -42 13 13 14 20 6 34 -15 23 -38 26
-54 8z"/>
<path d="M3296 3661 c-18 -20 -21 -58 -7 -94 8 -20 18 -26 53 -29 57 -6 78 12
78 67 0 51 -15 66 -69 70 -28 2 -44 -2 -55 -14z m49 -33 l20 -33 3 33 c5 53
22 36 22 -23 0 -30 -2 -55 -5 -55 -2 0 -16 17 -30 37 l-25 38 0 -38 c0 -20 -4
-37 -10 -37 -5 0 -10 25 -10 55 0 30 4 55 8 55 4 0 17 -15 27 -32z"/>
<path d="M3475 3655 c-14 -13 -25 -36 -25 -50 0 -33 41 -75 74 -75 38 0 56 10
72 42 40 77 -59 146 -121 83z m83 -11 c31 -22 26 -63 -10 -83 -24 -14 -28 -14
-47 3 -25 23 -27 53 -4 78 20 22 32 23 61 2z"/>
<path d="M3507 3633 c-11 -10 -8 -51 3 -58 20 -12 50 6 50 30 0 27 -35 46 -53
28z"/>
<path d="M3655 3664 c-15 -11 -20 -26 -19 -60 1 -55 21 -72 80 -70 50 2 70 17
79 58 12 51 -29 103 -61 77 -9 -7 -18 -7 -33 0 -24 13 -22 14 -46 -5z m45 -45
l13 -31 18 33 c9 19 20 32 24 29 10 -7 13 -90 3 -96 -4 -3 -8 10 -9 28 l-1 33
-11 -26 c-7 -15 -16 -27 -22 -27 -5 0 -15 12 -22 27 l-11 26 -1 -33 c-1 -18
-4 -31 -8 -29 -5 3 -6 28 -5 56 4 56 12 58 32 10z"/>
<path d="M3941 3666 c-21 -26 -25 -83 -7 -111 18 -28 72 -35 94 -13 16 16 16
110 0 126 -16 16 -73 15 -87 -2z m81 -21 c-2 -5 -14 -9 -27 -7 -17 2 -25 -1
-25 -12 0 -10 10 -17 28 -17 l27 -2 -27 -4 c-36 -6 -39 -36 -3 -31 13 2 23 -1
22 -7 -1 -5 -15 -10 -32 -10 -27 1 -30 4 -33 39 -5 56 3 68 40 64 18 -2 32 -7
30 -13z"/>
<path d="M3830 3651 c-22 -43 -5 -111 28 -111 27 0 42 20 42 58 0 43 -16 72
-40 72 -11 0 -24 -9 -30 -19z m40 -46 c0 -30 -4 -55 -10 -55 -5 0 -10 25 -10
55 0 30 5 55 10 55 6 0 10 -25 10 -55z"/>
</g>
</svg>
