 <svg  version="1.0" xmlns="http://www.w3.org/2000/svg"  width="153.000000pt" height="197.000000pt" viewBox="0 0 153.000000 197.000000"  preserveAspectRatio="xMidYMid meet">  <g transform="translate(0.000000,197.000000) scale(0.100000,-0.100000)" fill="#efbf86" stroke="none"> <path d="M645 1860 c-136 -13 -238 -62 -329 -160 -65 -70 -98 -130 -120 -217 -53 -205 32 -423 214 -546 25 -17 47 -32 49 -34 6 -4 -101 -113 -110 -113 -4 0 -31 21 -59 48 -62 56 -80 67 -80 51 0 -11 138 -159 149 -159 3 0 16 18 28 39 19 32 99 111 114 111 2 0 3 -33 1 -73 -5 -103 22 -170 92 -235 54 -49 129 -82 187 -82 117 0 218 131 189 242 -15 53 -49 99 -95 128 -30 18 -57 23 -173 30 -104 5 -150 13 -191 29 -280 113 -386 444 -223 697 50 77 109 128 202 173 72 35 79 36 200 39 69 1 178 3 243 5 64 1 117 -2 117 -6 0 -4 -11 -19 -25 -32 -24 -25 -25 -25 -223 -25 -222 0 -257 -7 -350 -68 -82 -53 -137 -130 -168 -231 -26 -87 -55 -79 314 -83 324 -4 328 -4 394 -30 200 -76 338 -229 384 -426 24 -101 15 -247 -21 -337 -95 -238 -306 -385 -555 -385 -161 0 -299 58 -415 175 -107 106 -175 257 -175 388 0 65 -11 121 -21 105 -25 -38 6 -258 47 -341 34 -68 99 -154 155 -203 247 -216 620 -204 849 28 79 79 141 190 166 294 23 99 15 256 -19 346 -74 203 -231 346 -435 399 -65 17 -111 19 -354 19 -224 0 -280 3 -284 13 -3 8 5 39 16 70 30 79 104 158 188 199 l66 33 211 5 c219 5 244 10 266 51 19 36 -5 65 -58 73 -58 8 -253 5 -358 -4z m65 -1006 c135 -8 145 -11 184 -54 41 -46 50 -74 44 -134 -14 -123 -145 -177 -267 -110 -94 51 -141 134 -141 252 l0 65 48 -7 c26 -4 85 -9 132 -12z"/> <path d="M270 1313 c1 -65 55 -176 117 -240 49 -50 166 -119 183 -108 23 14 52 143 57 253 l6 112 -182 0 c-166 0 -181 -1 -181 -17z m124 -57 c-6 -39 -3 -48 20 -71 21 -21 33 -26 54 -21 44 11 65 44 58 93 -5 42 -5 43 22 43 15 0 33 -5 40 -12 27 -27 0 -241 -34 -269 -46 -38 -204 114 -235 226 -13 46 -6 55 41 55 l40 0 -6 -44z m108 -1 c9 -21 8 -28 -7 -45 -35 -39 -93 -1 -74 48 12 33 65 31 81 -3z"/> <path d="M688 1249 c4 -85 -18 -210 -45 -262 -8 -16 -12 -32 -8 -35 4 -4 57 -8 118 -9 l110 -3 45 37 c78 64 182 211 182 258 0 19 -79 57 -165 80 -32 8 -100 15 -150 15 l-90 0 3 -81z m277 22 c89 -31 95 -41 65 -99 -14 -26 -59 -82 -101 -124 l-76 -77 -76 2 c-42 1 -81 7 -86 12 -6 6 -2 36 9 80 11 39 19 102 19 141 1 42 6 75 14 83 18 19 158 8 232 -18z"/> <path d="M1137 1189 c-11 -43 -82 -144 -151 -214 l-66 -68 36 -35 c47 -45 75 -110 77 -175 l2 -52 79 -47 c87 -53 143 -69 157 -47 49 76 73 250 49 362 -16 79 -69 181 -128 247 -47 53 -49 54 -55 29z m80 -118 c57 -83 83 -171 83 -275 0 -95 -30 -201 -59 -211 -38 -12 -154 54 -170 95 -5 14 -12 46 -16 72 -4 31 -19 65 -45 102 l-40 56 55 60 c29 32 71 84 91 115 20 30 42 54 48 52 6 -2 30 -31 53 -66z"/> <path d="M416 698 c-11 -29 -20 -55 -22 -57 -4 -4 -63 36 -96 67 -16 14 -28 22 -28 18 0 -25 37 -129 63 -179 l31 -59 19 26 c10 14 39 38 63 52 34 20 43 31 38 43 -4 9 -14 36 -22 61 -8 25 -18 53 -21 63 -5 14 -11 5 -25 -35z m24 -77 c0 -19 -47 -61 -69 -61 -12 0 -31 32 -31 54 0 11 8 13 34 9 19 -3 36 -1 40 6 11 18 26 13 26 -8z"/> <path d="M995 554 c-23 -42 -75 -85 -130 -106 -38 -15 -40 -18 -43 -61 -2 -25 4 -61 12 -81 18 -43 33 -45 127 -13 88 30 171 82 226 141 l46 48 -49 17 c-27 9 -75 33 -107 54 -31 20 -59 37 -60 37 -1 0 -11 -16 -22 -36z m159 -85 c29 -27 -149 -141 -241 -155 -35 -5 -43 -3 -53 15 -22 43 -9 74 44 103 27 14 67 45 89 67 l39 42 57 -32 c31 -17 60 -35 65 -40z"/> <path d="M495 528 c-31 -17 -85 -70 -85 -84 0 -19 99 -94 166 -126 51 -24 203 -63 212 -54 1 2 -4 16 -13 32 -8 16 -15 52 -15 80 l0 51 -61 18 c-34 10 -86 36 -116 57 -60 42 -60 42 -88 26z m53 -40 c6 -6 49 -30 94 -52 l83 -41 3 -44 3 -44 -43 7 c-88 14 -228 96 -228 135 0 16 44 50 66 51 5 0 15 -5 22 -12z"/> </g> </svg> 